<svg xmlns="http://www.w3.org/2000/svg" width="15.458" height="28.303" viewBox="0 0 15.458 28.303">
  <g id="Group_36440" data-name="Group 36440" transform="translate(-425.573 -315.891)">
    <path id="Union_151" data-name="Union 151" d="M10.372,10.222a8.259,8.259,0,0,1,5.086-2.4,8.316,8.316,0,0,1-7.483,7.483A8.31,8.31,0,0,1,10.372,10.222ZM2.4,12.911A8.264,8.264,0,0,1,0,7.825a8.255,8.255,0,0,1,5.085,2.4,8.3,8.3,0,0,1,2.4,5.086A8.273,8.273,0,0,1,2.4,12.911Zm3.1-6.7A9.731,9.731,0,0,1,7.731,0a9.732,9.732,0,0,1,2.23,6.214,9.725,9.725,0,0,1-2.23,6.213A9.73,9.73,0,0,1,5.5,6.214Z" transform="translate(425.573 315.891)" fill="#edb636"/>
    <path id="Union_152" data-name="Union 152" d="M6.858,6.156A6.159,6.159,0,0,1,13.017,0V7.64A6.158,6.158,0,0,1,6.858,13.8ZM0,7.64V0A6.158,6.158,0,0,1,6.159,6.156V13.8A6.159,6.159,0,0,1,0,7.64Z" transform="translate(426.795 330.398)" fill="#04a271"/>
  </g>
</svg>
