<svg xmlns="http://www.w3.org/2000/svg" xmlns:xlink="http://www.w3.org/1999/xlink" width="31.669" height="32" viewBox="0 0 31.669 32">
  <defs>
    <linearGradient id="linear-gradient" y1="0.415" x2="1" y2="0.458" gradientUnits="objectBoundingBox">
      <stop offset="0" stop-color="#e3ab27"/>
      <stop offset="1" stop-color="#04a271"/>
    </linearGradient>
  </defs>
  <g id="Group_36451" data-name="Group 36451" transform="translate(-165 -540)">
    <g id="Layer_2" data-name="Layer 2" transform="translate(165 540)">
      <path id="Path_93166" data-name="Path 93166" d="M11.95,33.25a3.348,3.348,0,0,1-3.335-3.374v-.931a1.5,1.5,0,0,0-1.483-1.507H5.3A4.088,4.088,0,0,1,1.25,23.323V5.365A4.088,4.088,0,0,1,5.3,1.25H28.868a4.088,4.088,0,0,1,4.051,4.115V23.323a4.088,4.088,0,0,1-4.051,4.115H19.63a1.462,1.462,0,0,0-1.049.449l-4.308,4.37a3.243,3.243,0,0,1-2.323.994ZM5.3,3.495A1.859,1.859,0,0,0,3.459,5.365V23.323A1.859,1.859,0,0,0,5.3,25.193H7.132a3.727,3.727,0,0,1,3.693,3.752v.931a1.123,1.123,0,0,0,.682,1.036,1.092,1.092,0,0,0,1.2-.243l4.308-4.377a3.643,3.643,0,0,1,2.612-1.1h9.238a1.859,1.859,0,0,0,1.841-1.871V5.365a1.859,1.859,0,0,0-1.841-1.871Z" transform="translate(-1.25 -1.25)" fill="url(#linear-gradient)"/>
    </g>
    <path id="Union_147" data-name="Union 147" d="M-3440.557-151.9v-3.367h-3.333a1.117,1.117,0,0,1-1.111-1.122,1.117,1.117,0,0,1,1.111-1.122h3.333v-3.367a1.116,1.116,0,0,1,1.111-1.122,1.116,1.116,0,0,1,1.111,1.122v3.367H-3435a1.117,1.117,0,0,1,1.111,1.122,1.117,1.117,0,0,1-1.111,1.122h-3.332v3.367a1.116,1.116,0,0,1-1.111,1.122A1.116,1.116,0,0,1-3440.557-151.9Z" transform="translate(3620.281 709.482)" fill="url(#linear-gradient)"/>
  </g>
</svg>
